<svg width="600" height="235" viewBox="0 0 600 235" fill="none" xmlns="http://www.w3.org/2000/svg">
<g clip-path="url(#clip0_156_6659)">
<path d="M26.8767 14.555C28.6481 7.19648 36.0594 2.23926 45.4035 2.23926H128.856L121.607 21.593H53.1363L48.1421 43.0274H107.912L103.885 60.143H44.115L38.9594 82.5377H106.303L99.0526 101.891H23.171C13.1826 101.891 8.18844 95.3342 10.4441 85.4156L26.8767 14.555Z" fill="white"/>
<path d="M216.336 74.2207C220.202 73.9016 221.331 70.862 222.781 64.6226L237.28 2.23961H264.99L249.363 69.7415C244.207 91.9759 229.709 104.133 212.469 104.133C200.548 104.133 192.815 98.8536 186.21 84.9365L170.744 46.7071C168.326 40.6293 165.91 27.8328 161.399 28.1533C157.533 28.4724 156.406 31.5106 154.956 37.7486L139.972 101.893H112.262L127.889 34.3913C133.206 12.1555 147.545 0 164.783 0C176.706 0 185.243 4.79836 191.044 19.1949L206.509 57.4257C209.409 63.3418 211.825 74.5398 216.336 74.2207Z" fill="white"/>
<path d="M344.091 2.23926C379.051 2.23926 391.295 17.274 383.239 51.6653C376.312 81.5774 355.853 101.893 320.892 101.893H255.483L275.783 14.555C277.554 7.19648 284.965 2.23926 294.309 2.23926H344.091ZM325.242 83.4965C339.58 83.4965 349.569 74.8586 355.046 51.6653C360.685 27.5104 355.53 20.4739 340.869 20.4739H302.205L287.542 83.4965H325.242Z" fill="white"/>
<path d="M230.781 144.906C232.552 137.547 239.963 132.59 249.307 132.59H332.76L325.51 151.944H257.04L252.046 173.378H311.816L307.789 190.494H248.019L242.863 212.888H310.206L302.956 232.242H227.075C217.086 232.242 212.092 225.685 214.348 215.766L230.781 144.906Z" fill="white"/>
<path d="M420.239 204.569C424.104 204.25 425.233 201.211 426.681 194.971L441.183 132.588H468.892L453.265 200.09C448.11 222.325 433.611 234.481 416.372 234.481C404.45 234.481 396.718 229.202 390.112 215.285L374.647 177.056C372.228 170.978 369.812 158.181 365.301 158.502C361.435 158.821 360.308 161.859 358.858 168.097L343.874 232.242H316.165L331.792 164.74C337.109 142.504 351.447 130.349 368.685 130.349C380.608 130.349 389.145 135.147 394.945 149.543L410.412 187.774C413.312 193.69 415.727 204.888 420.239 204.569Z" fill="white"/>
<path d="M547.994 132.59C582.953 132.59 595.197 147.625 587.142 182.016C580.215 211.928 559.755 232.243 524.794 232.243H459.385L479.685 144.906C481.456 137.547 488.868 132.59 498.212 132.59H547.994ZM529.144 213.847C543.482 213.847 553.471 205.209 558.948 182.016C564.588 157.861 559.432 150.824 544.771 150.824H506.107L491.445 213.847H529.144Z" fill="white"/>
<path d="M430.084 2.90967L410.267 104.133L580.289 103.593L600 2.90967H430.084Z" fill="#FF1000"/>
<path d="M503.82 28.4785L501.383 38.9631H479.775L470.514 78.7273H456.542L465.802 38.9631H443.707L444.275 36.7051C445.413 31.7847 449.474 28.4785 454.43 28.4785H503.82Z" fill="#001B2E"/>
<path d="M539.154 27.2676C562.305 27.2676 569.454 36.5423 565.555 53.3997C561.574 70.5805 550.04 79.7744 526.969 79.7744C503.897 79.7744 496.506 70.5805 500.486 53.3997C504.385 36.5423 516.083 27.2676 539.154 27.2676ZM529.487 69.772C543.297 69.772 548.495 65.5779 551.42 52.9955C553.857 42.43 550.851 37.2685 537.041 37.2685C523.231 37.2685 517.302 42.2683 514.864 52.8338C511.94 65.497 515.839 69.772 529.487 69.772Z" fill="#001B2E"/>
<path d="M47.1949 165.546H13.2112L19.8168 131.804H53.8005L47.1949 165.546Z" fill="#FF1000"/>
<path d="M33.9837 233.027H0L6.60561 199.286H40.5893L33.9837 233.027Z" fill="#FF1000"/>
<path d="M115.161 165.546H81.1772L87.7828 131.804H121.767L115.161 165.546Z" fill="#FF1000"/>
<path d="M183.128 165.546H149.145L155.75 131.804H189.734L183.128 165.546Z" fill="#FF1000"/>
<path d="M170.023 232.488H136.039L142.645 198.746H176.629L170.023 232.488Z" fill="#FF1000"/>
<path d="M101.95 233.027H67.9661L74.5717 199.286H108.555L101.95 233.027Z" fill="#FF1000"/>
<path d="M74.5731 199.288H40.5894L47.195 165.546H81.1787L74.5731 199.288Z" fill="#FF1000"/>
<path d="M142.539 199.288H108.555L115.161 165.546H149.145L142.539 199.288Z" fill="#FF1000"/>
</g>
<defs>
<clipPath id="clip0_156_6659">
<rect width="600" height="234.483" fill="white"/>
</clipPath>
</defs>
</svg>
