<svg width="643" height="112" viewBox="0 0 643 112" fill="none" xmlns="http://www.w3.org/2000/svg">
<path d="M628.474 21.5212C625.922 20.1249 622.618 19.1196 619.443 19.1196C616.267 19.1196 612.156 20.46 612.156 24.4441C612.156 31.9095 626.969 31.444 626.969 44.3828C626.969 55.7764 618.635 59.9093 609.109 59.9093C604.942 59.9093 600.647 58.8482 596.719 57.3216L598.958 49.3908C602.317 51.0477 605.878 52.5929 609.604 52.5929C613.771 52.5929 617.883 50.3216 617.883 45.3323C617.883 36.936 603.07 38.2578 603.07 25.859C603.07 16.0665 610.908 11.8032 619.259 11.8032C623.059 11.8032 626.969 12.3431 630.53 13.8697L628.474 21.5398V21.5212Z" fill="white"/>
<path d="M303.257 31.6116H323.154L321.172 41.4413H301.348L303.257 31.6116Z" fill="white"/>
<path d="M51.9655 12.5851H61.3269L57.3804 31.3696H76.2316L80.1781 12.5851H89.5394L79.7743 59.1088H70.4129L74.6898 38.7047H55.8386L51.5617 59.1088H42.2003L51.9655 12.5851Z" fill="white"/>
<path d="M97.5234 12.5851H125.002L123.588 19.9016H105.343L102.938 31.3696H119.238L117.77 38.7047H101.396L98.6431 51.7738H117.109L115.494 59.1088H87.6848L97.5234 12.5851Z" fill="white"/>
<path d="M133.04 12.585H144.072C152.699 12.585 162.666 12.4547 162.666 23.5876C162.666 31.5929 156.646 35.8562 149.028 35.9865V36.1168C151.561 36.2472 153.177 37.8482 153.782 40.3801L158.261 59.1088H148.441L146.165 48.1806C145.1 43.2471 145.357 39.7844 140.273 39.7844H136.73L132.655 59.1088H123.294L133.059 12.585H133.04ZM138.382 32.4307H141.796C146.807 32.4307 152.901 30.9041 152.901 24.7791C152.901 19.9015 148.679 19.9015 144.88 19.9015H141.007L138.4 32.4307H138.382Z" fill="white"/>
<path d="M168.041 12.5851H177.403L178.798 48.2366H178.926L194.455 12.5851H207.01L207.212 48.2366H207.359L223.861 12.5851H233.571L211.287 59.1088H199.595L199.117 21.9122H198.989L182.542 59.1088H170.978L168.041 12.5851Z" fill="white"/>
<path d="M238.716 12.5851H248.481L238.643 59.1088H228.878L238.716 12.5851Z" fill="white"/>
<path d="M257.101 12.5851H268.94L278.889 47.9014H279.036L286.653 12.5851H295.482L285.387 59.1088H273.346L263.599 23.4388H263.452L256.036 59.1088H247.079L257.101 12.5851Z" fill="white"/>
<path d="M636.52 46.8961C640.081 46.8961 643 49.8376 643 53.4679C643 57.0982 640.1 60.0397 636.52 60.0397C632.941 60.0397 630.041 57.0982 630.041 53.4679C630.041 49.8376 632.941 46.8961 636.52 46.8961ZM636.52 58.569C639.09 58.569 641.128 56.4839 641.128 53.4493C641.128 50.4147 639.09 48.3297 636.52 48.3297C633.951 48.3297 631.913 50.4147 631.913 53.4493C631.913 56.4839 633.932 58.569 636.52 58.569ZM633.914 49.7818H636.612C638.448 49.7818 639.494 50.3217 639.494 51.96C639.494 53.2818 638.705 53.8216 637.585 53.9147L639.494 57.0796H637.915L636.208 53.9892H635.474V57.0796H633.932V49.7818H633.914ZM636.704 52.7791C637.438 52.7791 637.952 52.6488 637.952 51.811C637.952 51.0663 637.163 50.9733 636.557 50.9733H635.456V52.7791H636.704Z" fill="white"/>
<path d="M409.251 12.5851H418.337L409.178 59.1088H400.091L409.251 12.5851Z" fill="white"/>
<path d="M426.414 12.5851H435.132L427.35 51.7737H444.402L442.915 59.1088H417.199L426.414 12.5851Z" fill="white"/>
<path d="M457.546 12.5851H466.265L458.482 51.7738H475.534L474.047 59.1088H448.331L457.546 12.5851Z" fill="white"/>
<path d="M488.24 12.5851H497.326L488.185 59.1088H479.099L488.24 12.5851Z" fill="white"/>
<path d="M519.059 12.5851H528.714L536.625 59.1088H527.906L526.419 48.4413H507.935L502.392 59.1088H492.737L519.077 12.5851H519.059ZM511.772 41.1062H525.226L522.491 20.851H522.234L511.772 41.1062Z" fill="white"/>
<path d="M550.514 12.5851H564.904L567.823 46.1142H567.952L585.059 12.5851H599.578L590.29 59.1088H581.076L589.299 20.5904H589.171L569.512 59.1088H561.16L557.672 20.5904H557.544L549.578 59.1088H541.299L550.514 12.5851Z" fill="white"/>
<path d="M398.588 0.74453C398.404 1.19134 379.039 46.0954 379.039 46.0954L378.176 45.9464C378.176 45.9464 377.938 1.47059 377.938 0.74453H363.602C363.418 1.20995 345.228 46.0768 345.228 46.0768L344.365 45.9464C344.365 45.9464 342.731 1.45197 342.713 0.74453H332.324C332.361 1.52644 335.738 58.7549 335.775 59.4437H348.954C349.138 58.9969 368.429 12.1567 368.429 12.1567L369.292 12.3056C369.292 12.3056 369.843 58.7363 369.843 59.4623H383.169C383.352 59.0341 408.867 1.78708 409.326 0.763147H398.606L398.588 0.74453Z" fill="white"/>
<path d="M8.60878 17.4999C8.60878 25.9148 14.4091 29.1541 20.0076 32.2818C24.5965 34.8323 28.9284 37.2525 28.9284 42.3721C28.9284 49.1115 22.9996 52.1274 17.1074 52.1274C11.8944 52.1274 7.01184 50.1354 2.79005 48.2179C2.53307 49.0742 0.238623 56.6141 0 57.396C5.85544 59.4811 11.3805 60.5609 16.4283 60.5609C23.6604 60.5609 40.4924 58.6806 40.4924 41.1807C40.4924 32.0584 34.1231 28.3164 28.4879 25.0025C24.211 22.4893 20.1544 20.1063 20.1544 15.7127C20.1544 10.6861 25.4042 8.43347 30.6171 8.43347C34.5636 8.43347 38.9139 9.53187 42.6951 11.3563C42.9337 10.5372 45.0263 3.27658 45.2466 2.49467C41.0248 0.856379 36.0504 0 30.3602 0C20.3196 0 8.60878 4.57976 8.60878 17.4999Z" fill="white"/>
<path d="M0.905975 111.468L6.91402 79.5283C8.96439 78.9968 12.1591 78.7069 15.2585 78.7069C18.1672 78.7069 21.4573 79.1901 23.7938 80.8813C25.9872 82.3309 27.2746 84.6502 27.2746 87.791C27.2746 91.8499 25.415 94.9907 22.9355 96.9235C20.3129 99.0013 16.546 99.9677 12.636 99.9677C11.4916 99.9677 10.5379 99.8227 9.82268 99.7744L7.62926 111.468H0.905975ZM12.6837 84.457L10.8717 94.0727C11.6346 94.2176 12.3499 94.3143 13.5419 94.3143C17.6427 94.3143 20.3606 91.6567 20.3606 88.3709C20.3606 85.2784 18.1672 84.2637 15.4969 84.2637C14.2095 84.2637 13.2558 84.3603 12.6837 84.457Z" fill="white"/>
<path d="M51.049 104.993L51.6212 110.598C49.9046 111.371 47.0436 111.999 43.1813 111.999C34.6461 111.999 28.9718 106.781 28.9718 98.1799C28.9718 90.7869 32.2143 85.0851 37.0779 81.7993C40.4157 79.48 44.3257 78.3686 48.8556 78.3686C52.3364 78.3686 54.959 79.1901 55.9127 79.7216L54.0053 85.375C53.0994 84.8918 50.9536 84.312 48.188 84.312C45.4224 84.312 42.7999 85.1818 40.8449 86.8246C38.1746 89.0957 36.4104 92.8163 36.4104 97.3584C36.4104 102.577 39.319 106.056 44.9456 106.056C47.2344 106.056 49.4755 105.669 51.049 104.993Z" fill="white"/>
<path d="M83.9308 92.913L80.6884 109.97C78.2566 110.791 74.3466 111.806 70.2935 111.806C65.9067 111.806 62.2351 110.646 59.6126 108.23C57.0377 105.959 55.5595 102.335 55.5595 98.1799C55.5595 92.0915 57.9913 86.8246 62.0921 83.2973C65.716 80.2531 70.7227 78.5619 76.3016 78.5619C80.45 78.5619 83.5494 79.3833 84.7891 80.0115L82.7388 85.9066C81.3083 85.2301 78.7811 84.5536 75.9201 84.5536C72.7254 84.5536 69.9121 85.4717 67.7663 87.1629C64.953 89.3856 63.0934 93.2512 63.0934 97.6967C63.0934 103.157 66.2882 105.911 71.3426 105.911C72.9638 105.911 74.0605 105.669 74.8711 105.331L76.1585 98.4698H71.1518L72.2485 92.913H83.9308Z" fill="white"/>
<path d="M95.0145 111.468L101.118 78.9001H119.953L118.808 84.8435H106.888L105.409 92.4781H116.615L115.47 98.3248H104.313L101.881 111.468H95.0145Z" fill="white"/>
<path d="M139.567 111.468H133.273C133.321 110.115 133.464 108.472 133.559 106.781H133.464C131.27 110.695 128.266 111.999 125.548 111.999C121.352 111.999 118.491 108.714 118.491 103.785C118.491 95.8122 123.736 87.3078 135.18 87.3078C137.994 87.3078 140.95 87.8394 142.857 88.4675L140.521 100.837C139.949 103.882 139.472 108.52 139.567 111.468ZM134.179 98.2282L135.133 92.768C134.608 92.6714 134.036 92.5747 133.321 92.5747C128.886 92.5747 125.644 98.0832 125.644 102.48C125.644 104.8 126.55 106.394 128.457 106.394C130.507 106.394 133.13 104.027 134.179 98.2282Z" fill="white"/>
<path d="M161.344 105.476L161.392 110.743C159.914 111.468 157.53 111.999 154.764 111.999C148.995 111.999 144.941 108.424 144.941 102.287C144.941 93.8794 151.283 87.3078 160.152 87.3078C162.155 87.3078 163.872 87.6944 164.921 88.1293L163.204 93.4445C162.393 93.1063 161.44 92.8647 160.057 92.8647C155.193 92.8647 152.142 97.0685 152.142 101.514C152.142 104.8 154.192 106.443 156.719 106.443C158.722 106.443 160.152 105.959 161.344 105.476Z" fill="white"/>
<path d="M171.769 111.468H164.902L169.337 87.8394H176.156L171.769 111.468ZM173.628 84.7469H173.581C171.578 84.7469 170.1 83.2973 170.1 81.1229C170.1 78.6102 172.055 76.919 174.296 76.919C176.442 76.919 177.967 78.3203 177.967 80.543C177.967 83.2006 175.965 84.7469 173.628 84.7469Z" fill="white"/>
<path d="M184.388 111.468H177.522L184.006 77.1606H190.873L184.388 111.468Z" fill="white"/>
<path d="M197.007 111.468H190.141L194.575 87.8394H201.394L197.007 111.468ZM198.867 84.7469H198.819C196.816 84.7469 195.338 83.2973 195.338 81.1229C195.338 78.6102 197.293 76.919 199.534 76.919C201.68 76.919 203.206 78.3203 203.206 80.543C203.206 83.2006 201.203 84.7469 198.867 84.7469Z" fill="white"/>
<path d="M208.863 83.3939L215.92 81.4611L214.728 87.8394H219.735L218.686 93.1546H213.727L212.153 101.127C211.963 102.094 211.772 103.302 211.772 104.123C211.772 105.283 212.249 106.104 213.775 106.104C214.347 106.104 215.062 106.104 215.634 106.008L214.871 111.468C213.965 111.806 212.249 111.999 210.818 111.999C206.67 111.999 204.715 109.873 204.715 106.877C204.715 105.621 204.858 104.317 205.239 102.529L207.004 93.1546H204.047L205.001 87.8394H208.005L208.863 83.3939Z" fill="white"/>
<path d="M226.204 111.468H219.337L223.772 87.8394H230.59L226.204 111.468ZM228.063 84.7469H228.016C226.013 84.7469 224.535 83.2973 224.535 81.1229C224.535 78.6102 226.49 76.919 228.731 76.919C230.876 76.919 232.402 78.3203 232.402 80.543C232.402 83.2006 230.4 84.7469 228.063 84.7469Z" fill="white"/>
<path d="M250.982 105.09L251.459 110.115C248.741 111.516 245.355 111.999 242.78 111.999C236.105 111.999 232.672 108.182 232.672 101.997C232.672 94.7975 237.821 87.3078 246.261 87.3078C250.982 87.3078 254.367 90.0138 254.367 94.4109C254.367 100.403 248.598 102.577 239.252 102.335C239.252 103.012 239.49 104.075 239.967 104.751C240.873 105.959 242.447 106.588 244.449 106.588C246.977 106.588 249.122 106.008 250.982 105.09ZM247.93 94.4109V94.3626C247.93 93.2029 246.977 92.3814 245.403 92.3814C242.208 92.3814 240.396 95.0874 239.919 97.2618C245.26 97.3101 247.93 96.5853 247.93 94.4109Z" fill="white"/>
<path d="M255.034 110.163L256.703 105.283C258.038 105.959 260.565 106.926 262.806 106.926C264.713 106.926 265.715 105.959 265.715 104.8C265.715 103.64 264.952 102.819 262.806 101.756C260.136 100.403 257.895 98.4215 257.895 95.4739C257.895 90.5453 262.139 87.3078 268.147 87.3078C270.865 87.3078 273.01 87.8877 274.107 88.5158L272.486 93.4445C271.532 93.0096 269.863 92.4298 267.813 92.4298C266.001 92.4298 264.809 93.2029 264.809 94.5075C264.809 95.4739 265.763 96.2954 267.622 97.1651C270.197 98.4698 272.867 100.403 272.867 103.688C272.867 109.1 268.337 112.048 262.139 111.999C259.23 111.951 256.417 111.178 255.034 110.163Z" fill="white"/>
</svg>
